<svg width="32" height="34" viewBox="0 0 32 34" fill="none" xmlns="http://www.w3.org/2000/svg">
<path d="M22.3998 1.00015C22.3287 0.929036 22.0265 0.946813 21.4931 1.05348C20.9598 1.16015 20.4087 1.39126 19.8398 1.74681C19.0576 2.10237 18.3465 2.6357 17.7065 3.34681C17.0665 4.05792 16.6042 4.84015 16.3198 5.69348C16.1065 6.33348 15.9642 6.97348 15.8931 7.61348C15.8931 8.04015 15.9109 8.28904 15.9465 8.36015C15.982 8.43126 16.302 8.43126 16.9065 8.36015C17.5109 8.28904 18.1331 8.0757 18.7731 7.72015C19.6265 7.29348 20.3376 6.67126 20.9065 5.85348C21.4753 5.0357 21.902 4.2357 22.1865 3.45348C22.3287 2.81348 22.3998 2.26237 22.3998 1.80015C22.3998 1.33792 22.3998 1.07126 22.3998 1.00015ZM29.0131 24.4668C29.0131 24.4668 28.9065 24.3957 28.6931 24.2535C27.6265 23.5424 26.8087 22.8313 26.2398 22.1202C25.102 20.769 24.6042 19.2757 24.7465 17.6401C25.0309 15.1513 26.0976 13.3024 27.9465 12.0935L28.1598 11.8801C28.1598 11.809 27.8931 11.489 27.3598 10.9201C26.8265 10.3513 26.2753 9.92459 25.7065 9.64015C24.7109 9.07126 23.6442 8.78682 22.5065 8.78682H22.3998C21.6887 8.64459 20.9065 8.7157 20.0531 9.00015L18.4531 9.53348C17.102 9.96015 16.3198 10.1735 16.1065 10.1735C15.8931 10.1735 15.3953 10.0313 14.6131 9.74682C13.3331 9.24904 12.2842 8.92904 11.4665 8.78682C10.6487 8.64459 9.45757 8.89348 7.89313 9.53348C7.18202 9.81793 6.54202 10.2446 5.97313 10.8135C5.04868 11.5957 4.30202 12.6446 3.73313 13.9601C3.16424 15.2757 2.91535 17.0001 2.98646 19.1335C3.05757 20.769 3.27091 22.0846 3.62646 23.0802L3.73313 23.2935C4.08868 24.4313 4.40868 25.3202 4.69313 25.9602C5.11979 27.0979 5.59979 28.0579 6.13313 28.8402C6.66646 29.6224 7.28868 30.4046 7.99979 31.1868C8.56868 31.7557 9.04868 32.1824 9.43979 32.4668C9.83091 32.7513 10.3998 32.929 11.1465 33.0002C11.8931 33.0713 12.5331 32.9646 13.0665 32.6802C13.5998 32.3957 14.2398 32.1646 14.9865 31.9868C15.7331 31.809 16.3198 31.7202 16.7465 31.7202C17.1731 31.7202 17.7065 31.809 18.3465 31.9868C18.9865 32.1646 19.6265 32.4313 20.2665 32.7868C21.262 33.1424 22.3642 33.0713 23.5731 32.5735C24.142 32.3602 24.8176 31.7913 25.5998 30.8668C26.382 29.9424 27.1998 28.6624 28.0531 27.0268C28.7642 25.4624 29.0842 24.609 29.0131 24.4668ZM22.3998 1.00015C22.3287 0.929036 22.0265 0.946813 21.4931 1.05348C20.9598 1.16015 20.4087 1.39126 19.8398 1.74681C19.0576 2.10237 18.3465 2.6357 17.7065 3.34681C17.0665 4.05792 16.6042 4.84015 16.3198 5.69348C16.1065 6.33348 15.9642 6.97348 15.8931 7.61348C15.8931 8.04015 15.9109 8.28904 15.9465 8.36015C15.982 8.43126 16.302 8.43126 16.9065 8.36015C17.5109 8.28904 18.1331 8.0757 18.7731 7.72015C19.6265 7.29348 20.3376 6.67126 20.9065 5.85348C21.4753 5.0357 21.902 4.2357 22.1865 3.45348C22.3287 2.81348 22.3998 2.26237 22.3998 1.80015C22.3998 1.33792 22.3998 1.07126 22.3998 1.00015ZM29.0131 24.4668C29.0131 24.4668 28.9065 24.3957 28.6931 24.2535C27.6265 23.5424 26.8087 22.8313 26.2398 22.1202C25.102 20.769 24.6042 19.2757 24.7465 17.6401C25.0309 15.1513 26.0976 13.3024 27.9465 12.0935L28.1598 11.8801C28.1598 11.809 27.8931 11.489 27.3598 10.9201C26.8265 10.3513 26.2753 9.92459 25.7065 9.64015C24.7109 9.07126 23.6442 8.78682 22.5065 8.78682H22.3998C21.6887 8.64459 20.9065 8.7157 20.0531 9.00015L18.4531 9.53348C17.102 9.96015 16.3198 10.1735 16.1065 10.1735C15.8931 10.1735 15.3953 10.0313 14.6131 9.74682C13.3331 9.24904 12.2842 8.92904 11.4665 8.78682C10.6487 8.64459 9.45757 8.89348 7.89313 9.53348C7.18202 9.81793 6.54202 10.2446 5.97313 10.8135C5.04868 11.5957 4.30202 12.6446 3.73313 13.9601C3.16424 15.2757 2.91535 17.0001 2.98646 19.1335C3.05757 20.769 3.27091 22.0846 3.62646 23.0802L3.73313 23.2935C4.08868 24.4313 4.40868 25.3202 4.69313 25.9602C5.11979 27.0979 5.59979 28.0579 6.13313 28.8402C6.66646 29.6224 7.28868 30.4046 7.99979 31.1868C8.56868 31.7557 9.04868 32.1824 9.43979 32.4668C9.83091 32.7513 10.3998 32.929 11.1465 33.0002C11.8931 33.0713 12.5331 32.9646 13.0665 32.6802C13.5998 32.3957 14.2398 32.1646 14.9865 31.9868C15.7331 31.809 16.3198 31.7202 16.7465 31.7202C17.1731 31.7202 17.7065 31.809 18.3465 31.9868C18.9865 32.1646 19.6265 32.4313 20.2665 32.7868C21.262 33.1424 22.3642 33.0713 23.5731 32.5735C24.142 32.3602 24.8176 31.7913 25.5998 30.8668C26.382 29.9424 27.1998 28.6624 28.0531 27.0268C28.7642 25.4624 29.0842 24.609 29.0131 24.4668Z" fill="white"/>
</svg>
