<svg width="32" height="34" viewBox="0 0 32 34" fill="none" xmlns="http://www.w3.org/2000/svg">
<path d="M28.4797 19.7731C29.1197 19.3465 29.5641 18.7776 29.813 18.0665C30.0619 17.3554 30.0619 16.6442 29.813 15.9331C29.5641 15.222 29.1197 14.6531 28.4797 14.2265L23.0397 11.0265L16.6397 16.9998L23.0397 22.8665L28.4797 19.7731ZM21.2264 23.9331L15.1464 18.3865L2.02637 30.4398C2.16859 31.1509 2.48859 31.7376 2.98637 32.1998C3.48414 32.662 4.07081 32.9287 4.74637 32.9998C5.42192 33.0709 6.04415 32.9287 6.61303 32.5731L21.2264 23.9331ZM2.02637 27.7731V6.22647L13.653 16.9998L2.02637 27.7731ZM2.02637 3.5598L15.1464 15.6131L21.2264 10.0665L6.61303 1.42647C6.04415 1.07091 5.42192 0.92869 4.74637 0.999801C4.07081 1.07091 3.48414 1.33758 2.98637 1.7998C2.48859 2.26202 2.16859 2.84869 2.02637 3.5598Z" fill="white"/>
</svg>
