<svg width="15" height="23" viewBox="0 0 15 23" fill="none" xmlns="http://www.w3.org/2000/svg">
<path d="M9.45 3.91502C9.18333 3.64835 8.88333 3.44835 8.55 3.31502C8.21667 3.18169 7.86667 3.11502 7.5 3.11502C7.13333 3.11502 6.78333 3.18169 6.45 3.31502C6.11667 3.44835 5.81667 3.64835 5.55 3.91502L5 4.51502H4.15C3.78333 4.51502 3.43333 4.58169 3.1 4.71502C2.76667 4.84835 2.46667 5.04835 2.2 5.31502C1.93333 5.58169 1.73333 5.88169 1.6 6.21502C1.46667 6.54835 1.4 6.89835 1.4 7.26502V8.11502L0.8 8.66502C0.566667 8.93169 0.375 9.23169 0.225 9.56502C0.075 9.89835 0 10.2484 0 10.615C0 10.9817 0.075 11.3317 0.225 11.665C0.375 11.9984 0.566667 12.2984 0.8 12.565L1.4 13.115V13.965C1.4 14.3317 1.46667 14.6817 1.6 15.015C1.73333 15.3484 1.93333 15.6484 2.2 15.915C2.46667 16.1817 2.76667 16.3817 3.1 16.515C3.43333 16.6484 3.78333 16.715 4.15 16.715H5L5.55 17.315C5.81667 17.5484 6.11667 17.74 6.45 17.89C6.78333 18.04 7.13333 18.115 7.5 18.115C7.86667 18.115 8.21667 18.04 8.55 17.89C8.88333 17.74 9.18333 17.5484 9.45 17.315L10 16.715H10.85C11.2167 16.715 11.5667 16.6484 11.9 16.515C12.2333 16.3817 12.5333 16.1817 12.8 15.915C13.0667 15.6484 13.2667 15.3484 13.4 15.015C13.5333 14.6817 13.6 14.3317 13.6 13.965V13.115L14.2 12.565C14.4333 12.2984 14.625 11.9984 14.775 11.665C14.925 11.3317 15 10.9817 15 10.615C15 10.2484 14.925 9.89835 14.775 9.56502C14.625 9.23169 14.4333 8.93169 14.2 8.66502L13.6 8.11502V7.26502C13.6 6.89835 13.5333 6.54835 13.4 6.21502C13.2667 5.88169 13.0667 5.58169 12.8 5.31502C12.5333 5.04835 12.2333 4.84835 11.9 4.71502C11.5667 4.58169 11.2167 4.51502 10.85 4.51502H10L9.45 3.91502ZM9.7 9.56502L6.9 12.365C6.8 12.465 6.68333 12.515 6.55 12.515C6.41667 12.515 6.31667 12.465 6.25 12.365L4.8 10.965C4.73333 10.865 4.7 10.7484 4.7 10.615C4.7 10.4817 4.74167 10.3734 4.825 10.29C4.90833 10.2067 5.01667 10.165 5.15 10.165C5.28333 10.165 5.4 10.1984 5.5 10.265L6.55 11.365L9.05 8.86502C9.15 8.76502 9.25833 8.71502 9.375 8.71502C9.49167 8.71502 9.6 8.76502 9.7 8.86502C9.8 8.96502 9.85 9.08169 9.85 9.21502C9.85 9.34835 9.8 9.46502 9.7 9.56502Z" fill="#4CAF84"/>
</svg>
