<svg width="16" height="16" viewBox="0 0 16 16" fill="none" xmlns="http://www.w3.org/2000/svg">
<path d="M11.4667 0.16C11.36 0.0533329 11.2356 -3.8743e-07 11.0933 -3.8743e-07H4.90667C4.76444 -3.8743e-07 4.64 0.0533329 4.53333 0.16L0.16 4.53333C0.0533333 4.64 0 4.76444 0 4.90667V11.0933C0 11.2356 0.0533333 11.36 0.16 11.4667L4.53333 15.84C4.64 15.9467 4.76444 16 4.90667 16H11.0933C11.2356 16 11.36 15.9467 11.4667 15.84L15.84 11.4667C15.9467 11.36 16 11.2356 16 11.0933V4.90667C16 4.76444 15.9467 4.64 15.84 4.53333L11.4667 0.16ZM5.33333 4.64L8 7.30667L10.6667 4.64C10.7378 4.53333 10.8444 4.48 10.9867 4.48C11.1289 4.48 11.2533 4.53333 11.36 4.64C11.4667 4.74667 11.52 4.87111 11.52 5.01333C11.52 5.15556 11.4667 5.26222 11.36 5.33333L8.69333 8L11.36 10.6667C11.4667 10.7378 11.52 10.8444 11.52 10.9867C11.52 11.1289 11.4667 11.2533 11.36 11.36C11.2533 11.4667 11.1289 11.52 10.9867 11.52C10.8444 11.52 10.7378 11.4667 10.6667 11.36L8 8.69333L5.33333 11.36C5.26222 11.4667 5.15556 11.52 5.01333 11.52C4.87111 11.52 4.74667 11.4667 4.64 11.36C4.53333 11.2533 4.48 11.1289 4.48 10.9867C4.48 10.8444 4.53333 10.7378 4.64 10.6667L7.30667 8L4.64 5.33333C4.53333 5.26222 4.48 5.15556 4.48 5.01333C4.48 4.87111 4.53333 4.74667 4.64 4.64C4.74667 4.53333 4.87111 4.48 5.01333 4.48C5.15556 4.48 5.26222 4.53333 5.33333 4.64Z" fill="#DC3545"/>
</svg>
